<svg xmlns="http://www.w3.org/2000/svg" width="1024" height="1024" viewBox="0 0 1024 1024">
  <path d="M 460 430 L 494 608 L 498 615 L 497 627 L 500 631 L 508 633 L 514 627 L 514 617 L 552 431 L 542 430 L 514 563 L 511 562 L 510 431 L 500 431 L 500 570 L 497 571 L 470 431 Z M 706 419 L 701 421 L 699 425 L 695 427 L 687 402 L 685 402 L 683 423 L 689 438 L 672 437 L 672 439 L 678 444 L 693 448 L 693 455 L 682 450 L 677 450 L 677 452 L 683 458 L 696 464 L 695 469 L 684 463 L 680 463 L 680 465 L 688 474 L 698 478 L 697 484 L 686 478 L 683 478 L 683 481 L 689 489 L 699 495 L 700 502 L 697 503 L 686 492 L 683 492 L 683 496 L 688 505 L 700 514 L 700 522 L 697 523 L 684 508 L 682 508 L 682 513 L 687 523 L 699 535 L 698 542 L 695 543 L 683 526 L 680 526 L 685 543 L 696 554 L 695 562 L 692 563 L 684 549 L 681 546 L 678 546 L 680 558 L 691 573 L 691 579 L 687 581 L 680 568 L 677 565 L 674 565 L 676 578 L 686 592 L 685 599 L 682 600 L 674 585 L 669 582 L 671 598 L 679 610 L 679 614 L 675 617 L 669 604 L 665 599 L 663 599 L 663 611 L 670 622 L 672 629 L 668 631 L 660 616 L 656 615 L 656 621 L 652 629 L 655 658 L 652 661 L 649 660 L 649 649 L 646 639 L 643 638 L 640 648 L 643 671 L 639 676 L 636 675 L 636 663 L 633 654 L 630 654 L 627 663 L 627 674 L 630 685 L 626 690 L 621 690 L 622 676 L 620 668 L 617 667 L 613 677 L 615 699 L 611 703 L 606 703 L 608 689 L 606 679 L 603 679 L 598 693 L 600 710 L 594 715 L 591 714 L 594 705 L 593 689 L 590 689 L 584 701 L 581 701 L 580 697 L 577 697 L 570 711 L 568 729 L 563 731 L 560 730 L 565 717 L 565 705 L 562 705 L 554 717 L 552 734 L 550 736 L 542 736 L 549 718 L 548 710 L 546 710 L 541 715 L 537 723 L 536 736 L 532 741 L 505 747 L 480 741 L 477 738 L 476 724 L 467 710 L 464 712 L 465 723 L 471 736 L 463 736 L 460 731 L 459 718 L 451 705 L 448 706 L 448 717 L 453 730 L 449 731 L 444 727 L 444 714 L 436 698 L 433 698 L 433 712 L 436 722 L 433 723 L 429 721 L 428 700 L 422 689 L 420 689 L 419 707 L 421 713 L 417 714 L 414 712 L 413 705 L 415 694 L 410 679 L 407 679 L 405 691 L 407 703 L 403 704 L 397 699 L 400 679 L 396 667 L 394 667 L 392 671 L 391 690 L 388 691 L 383 686 L 386 674 L 386 664 L 383 654 L 379 657 L 377 676 L 374 677 L 369 672 L 374 655 L 371 639 L 369 639 L 365 650 L 365 662 L 362 663 L 358 658 L 358 653 L 363 641 L 362 627 L 359 627 L 358 629 L 355 628 L 356 614 L 352 615 L 344 631 L 340 629 L 340 625 L 345 619 L 349 609 L 349 598 L 347 598 L 342 605 L 337 616 L 334 615 L 333 609 L 342 595 L 343 582 L 339 583 L 331 598 L 328 598 L 326 594 L 336 579 L 338 565 L 335 565 L 330 571 L 325 581 L 321 578 L 321 572 L 332 558 L 334 545 L 332 545 L 325 552 L 321 560 L 317 558 L 317 553 L 326 545 L 332 531 L 332 527 L 327 526 L 331 515 L 326 517 L 323 516 L 329 505 L 330 497 L 323 501 L 316 511 L 313 510 L 314 505 L 321 499 L 330 485 L 330 481 L 316 485 L 316 479 L 326 475 L 333 467 L 333 464 L 327 464 L 321 469 L 319 469 L 318 466 L 320 463 L 328 462 L 336 453 L 336 450 L 329 451 L 325 454 L 322 454 L 321 451 L 324 448 L 335 445 L 341 440 L 341 437 L 332 438 L 327 441 L 324 440 L 330 424 L 328 404 L 326 404 L 318 431 L 315 430 L 309 420 L 306 420 L 310 438 L 317 446 L 316 452 L 313 453 L 309 443 L 305 438 L 303 438 L 303 448 L 305 454 L 313 465 L 311 470 L 312 475 L 309 476 L 301 461 L 298 461 L 299 474 L 304 485 L 309 490 L 309 497 L 306 498 L 303 492 L 298 487 L 294 486 L 296 498 L 302 507 L 308 512 L 309 521 L 306 522 L 299 513 L 295 510 L 291 510 L 293 518 L 298 526 L 309 534 L 310 542 L 307 543 L 303 538 L 295 534 L 291 534 L 291 536 L 300 549 L 312 555 L 313 561 L 312 565 L 298 557 L 293 557 L 294 561 L 303 571 L 314 574 L 318 585 L 315 586 L 301 580 L 297 580 L 297 582 L 304 590 L 311 593 L 319 593 L 323 600 L 322 605 L 303 601 L 303 605 L 312 611 L 327 613 L 330 618 L 329 622 L 318 619 L 310 619 L 308 622 L 320 629 L 333 629 L 336 631 L 338 636 L 337 639 L 320 638 L 317 639 L 317 641 L 326 646 L 343 646 L 348 652 L 347 656 L 329 656 L 327 657 L 328 661 L 335 663 L 353 662 L 358 667 L 357 671 L 345 671 L 340 673 L 338 677 L 343 679 L 357 679 L 362 677 L 367 678 L 370 684 L 356 688 L 352 691 L 352 694 L 369 695 L 379 691 L 385 696 L 384 699 L 377 700 L 369 704 L 366 707 L 367 710 L 381 710 L 391 705 L 395 705 L 400 709 L 399 712 L 392 713 L 385 717 L 381 721 L 382 724 L 396 723 L 408 716 L 415 719 L 416 722 L 406 726 L 398 733 L 398 736 L 413 734 L 424 726 L 431 728 L 432 731 L 422 737 L 415 747 L 426 746 L 443 734 L 448 736 L 449 739 L 444 742 L 434 753 L 434 755 L 439 755 L 451 750 L 459 742 L 464 742 L 466 746 L 459 752 L 454 760 L 454 763 L 465 760 L 470 756 L 476 747 L 483 747 L 493 751 L 492 754 L 485 758 L 483 761 L 483 766 L 492 764 L 498 756 L 504 753 L 513 756 L 521 765 L 530 766 L 528 759 L 521 754 L 519 750 L 535 746 L 546 759 L 559 763 L 557 757 L 546 745 L 547 742 L 553 741 L 564 752 L 579 756 L 578 752 L 564 739 L 565 736 L 572 735 L 578 742 L 590 747 L 597 747 L 597 745 L 589 736 L 581 731 L 584 727 L 589 727 L 598 734 L 615 736 L 610 729 L 603 724 L 598 723 L 597 720 L 601 717 L 605 717 L 615 723 L 630 724 L 631 721 L 627 717 L 620 713 L 613 712 L 613 708 L 620 705 L 630 710 L 646 709 L 643 704 L 636 700 L 627 700 L 626 697 L 632 692 L 642 695 L 658 695 L 661 693 L 661 691 L 652 686 L 642 686 L 641 682 L 646 677 L 653 679 L 669 679 L 674 677 L 674 675 L 662 670 L 655 671 L 654 668 L 659 662 L 676 663 L 685 660 L 685 657 L 666 655 L 665 652 L 670 646 L 685 646 L 695 641 L 694 638 L 675 639 L 674 636 L 678 630 L 691 629 L 704 622 L 703 619 L 684 621 L 683 618 L 687 613 L 701 611 L 710 604 L 710 601 L 699 602 L 693 605 L 689 604 L 692 595 L 708 590 L 715 583 L 715 580 L 711 580 L 696 586 L 695 582 L 698 575 L 708 572 L 719 561 L 719 558 L 714 558 L 703 565 L 700 564 L 700 561 L 704 554 L 711 551 L 717 545 L 722 534 L 718 534 L 706 543 L 703 542 L 704 534 L 716 525 L 722 514 L 722 510 L 715 512 L 707 521 L 704 520 L 705 512 L 716 502 L 721 490 L 721 487 L 718 487 L 707 499 L 704 498 L 704 491 L 714 480 L 717 468 L 716 463 L 712 462 L 713 451 L 709 454 L 706 453 L 710 442 L 710 435 L 708 435 L 700 445 L 696 444 L 704 432 Z M 583 709 L 584 720 L 581 723 L 578 723 L 577 719 L 580 714 L 580 710 Z M 352 634 L 355 635 L 353 647 L 351 647 L 348 643 L 348 640 Z M 660 633 L 663 634 L 665 639 L 663 645 L 660 644 Z M 322 531 L 323 534 L 319 540 L 316 541 L 315 535 Z M 705 471 L 708 472 L 706 477 L 703 476 Z M 706 454 L 707 457 L 705 458 L 704 462 L 701 463 L 700 459 L 704 454 Z M 441 323 L 435 328 L 435 335 L 442 344 L 457 419 L 467 419 L 452 343 L 454 328 L 449 323 Z M 567 322 L 562 323 L 557 329 L 560 341 L 545 412 L 546 420 L 555 418 L 569 346 L 576 335 L 576 328 L 574 325 Z M 501 316 L 495 322 L 495 326 L 499 333 L 500 419 L 510 419 L 510 333 L 513 329 L 514 323 L 510 317 Z" fill="#CC9934" fill-rule="evenodd"/>
  <path d="M 510 903 L 503 906 L 499 910 L 499 923 L 507 930 L 523 934 L 526 941 L 522 945 L 513 945 L 507 938 L 498 938 L 497 942 L 498 945 L 506 952 L 525 953 L 534 947 L 536 942 L 536 934 L 529 926 L 511 921 L 508 918 L 508 915 L 513 911 L 520 911 L 525 917 L 535 917 L 535 913 L 528 905 L 524 903 Z M 466 902 L 448 938 L 445 949 L 454 949 L 460 939 L 475 940 L 477 942 L 479 952 L 489 953 L 477 902 Z M 469 917 L 473 920 L 473 932 L 464 930 L 465 924 Z M 595 894 L 583 893 L 563 898 L 574 946 L 597 941 L 608 931 L 610 924 L 608 908 L 603 899 Z M 590 902 L 598 911 L 599 926 L 593 933 L 582 936 L 575 905 L 581 902 Z M 410 889 L 397 936 L 406 938 L 411 922 L 417 921 L 427 927 L 425 943 L 435 946 L 437 926 L 435 921 L 442 915 L 443 904 L 439 898 L 433 895 Z M 417 901 L 422 900 L 429 902 L 433 906 L 432 913 L 429 915 L 415 913 L 414 910 Z M 395 883 L 390 883 L 374 924 L 374 927 L 377 929 L 383 930 L 399 889 L 399 885 Z M 641 873 L 610 885 L 612 894 L 627 931 L 658 918 L 656 911 L 637 918 L 632 916 L 630 907 L 647 900 L 645 892 L 626 899 L 623 894 L 624 888 L 642 881 Z M 352 864 L 333 901 L 332 907 L 361 921 L 364 914 L 347 905 L 345 900 L 348 894 L 352 893 L 368 901 L 370 894 L 355 885 L 355 881 L 358 876 L 361 876 L 376 884 L 380 884 L 382 877 L 356 864 Z M 313 844 L 307 847 L 297 859 L 294 867 L 294 878 L 298 886 L 308 893 L 320 893 L 326 890 L 327 887 L 322 882 L 310 884 L 304 879 L 303 871 L 306 865 L 315 854 L 324 853 L 331 859 L 331 868 L 336 871 L 340 871 L 341 860 L 337 852 L 330 846 L 325 844 Z M 691 843 L 666 858 L 666 861 L 691 899 L 694 899 L 717 883 L 720 877 L 720 871 L 715 863 L 705 860 L 705 852 L 700 845 Z M 706 869 L 710 874 L 709 878 L 701 885 L 695 886 L 691 881 L 690 876 L 700 869 Z M 693 853 L 696 856 L 696 861 L 691 866 L 684 869 L 679 862 L 679 859 L 689 853 Z M 492 830 L 492 854 L 510 853 L 512 851 L 512 845 L 510 842 L 511 833 L 508 830 Z M 497 844 L 505 844 L 507 848 L 505 850 L 498 850 Z M 497 834 L 503 833 L 506 835 L 506 838 L 504 840 L 498 840 Z M 534 828 L 517 829 L 519 854 L 537 852 L 537 849 L 525 849 L 523 846 L 524 843 L 534 842 L 534 838 L 523 838 L 524 833 L 534 832 Z M 474 828 L 462 851 L 467 851 L 469 847 L 478 847 L 481 853 L 485 853 L 480 828 Z M 473 839 L 476 838 L 478 842 L 474 843 Z M 549 825 L 541 831 L 540 839 L 546 850 L 553 851 L 559 849 L 563 841 L 558 841 L 555 846 L 550 846 L 547 843 L 546 832 L 548 830 L 553 829 L 556 832 L 560 831 L 559 827 Z M 447 823 L 440 830 L 439 841 L 441 845 L 446 848 L 454 848 L 459 844 L 459 842 L 447 844 L 444 840 L 446 830 L 449 827 L 453 827 L 457 832 L 461 832 L 461 828 L 454 823 Z M 581 818 L 565 822 L 565 829 L 570 846 L 588 842 L 588 839 L 575 841 L 573 837 L 574 834 L 583 832 L 583 829 L 571 829 L 572 824 L 582 822 Z M 720 817 L 713 823 L 713 826 L 731 872 L 734 872 L 739 867 L 736 855 L 748 844 L 761 848 L 766 841 Z M 726 832 L 729 831 L 737 836 L 739 841 L 735 845 L 732 845 Z M 587 816 L 587 821 L 593 838 L 597 839 L 598 835 L 591 815 Z M 415 813 L 400 830 L 400 833 L 404 833 L 409 830 L 417 834 L 418 840 L 422 840 L 421 814 Z M 414 821 L 417 822 L 415 827 L 412 826 Z M 286 810 L 284 810 L 253 843 L 253 846 L 275 867 L 278 867 L 281 864 L 281 861 L 267 847 L 268 842 L 272 838 L 275 838 L 287 849 L 293 845 L 293 843 L 280 831 L 280 829 L 285 824 L 288 824 L 302 836 L 305 836 L 308 833 L 308 830 Z M 615 808 L 607 808 L 597 812 L 605 835 L 609 834 L 607 825 L 610 823 L 614 823 L 619 829 L 623 829 L 622 824 L 617 819 L 618 813 Z M 611 812 L 613 817 L 605 820 L 604 814 Z M 386 800 L 376 819 L 376 822 L 392 827 L 398 823 L 402 811 L 396 803 Z M 389 806 L 393 806 L 396 809 L 396 816 L 391 822 L 385 822 L 383 820 L 383 816 Z M 636 796 L 632 796 L 620 802 L 630 825 L 646 817 L 646 814 L 636 818 L 633 818 L 631 815 L 632 812 L 639 809 L 639 805 L 629 808 L 627 804 L 636 799 Z M 363 786 L 353 801 L 352 808 L 355 808 L 358 803 L 362 801 L 364 804 L 364 815 L 369 817 L 379 800 L 380 795 L 376 795 L 372 802 L 369 803 L 367 787 Z M 659 782 L 655 782 L 655 786 L 659 792 L 658 795 L 645 790 L 641 791 L 641 795 L 652 813 L 656 812 L 651 802 L 652 799 L 664 805 L 668 805 L 670 803 Z M 756 781 L 752 783 L 743 793 L 741 798 L 742 807 L 746 812 L 756 815 L 764 812 L 776 804 L 781 805 L 783 807 L 782 814 L 776 820 L 767 820 L 763 824 L 763 828 L 765 829 L 777 829 L 790 818 L 792 813 L 792 803 L 786 795 L 776 793 L 754 805 L 750 801 L 751 796 L 756 791 L 765 791 L 769 786 L 769 783 L 765 781 Z M 350 775 L 343 777 L 327 788 L 329 791 L 338 791 L 342 795 L 342 802 L 344 803 L 347 801 L 352 783 L 352 777 Z M 343 783 L 346 784 L 344 790 L 340 788 Z M 256 775 L 249 778 L 219 804 L 219 808 L 239 830 L 248 830 L 252 828 L 258 820 L 258 815 L 266 813 L 270 810 L 273 804 L 273 798 L 270 792 Z M 238 801 L 241 801 L 249 811 L 249 816 L 245 820 L 241 820 L 232 811 L 232 807 Z M 251 790 L 256 789 L 263 797 L 263 802 L 260 805 L 253 803 L 247 796 Z M 675 768 L 666 774 L 665 782 L 670 786 L 684 783 L 685 786 L 682 790 L 673 791 L 673 794 L 681 795 L 688 790 L 690 782 L 686 777 L 671 780 L 670 776 L 673 773 L 678 774 L 680 772 L 679 769 Z M 325 755 L 323 755 L 309 771 L 309 774 L 319 783 L 325 783 L 329 778 L 329 774 L 333 773 L 336 769 L 335 764 Z M 315 771 L 320 769 L 324 773 L 324 776 L 322 778 L 318 777 L 315 774 Z M 322 764 L 327 762 L 330 765 L 330 768 L 326 769 L 322 766 Z M 693 751 L 682 761 L 682 763 L 697 780 L 699 780 L 710 769 L 710 766 L 707 766 L 700 773 L 698 773 L 696 771 L 696 767 L 702 762 L 702 760 L 699 759 L 695 763 L 691 764 L 689 760 L 696 754 L 696 751 Z M 237 746 L 188 756 L 191 765 L 203 764 L 211 775 L 212 779 L 206 787 L 210 795 L 215 792 L 242 756 L 242 753 Z M 225 758 L 226 762 L 220 769 L 217 769 L 213 764 L 213 761 Z M 783 739 L 768 760 L 763 771 L 769 774 L 776 765 L 780 765 L 805 782 L 813 785 L 816 781 L 816 777 L 784 755 L 784 752 L 790 742 Z M 807 700 L 801 703 L 794 711 L 790 722 L 791 731 L 797 740 L 802 744 L 817 750 L 827 749 L 834 745 L 842 734 L 842 716 L 837 709 L 824 701 L 816 699 Z M 802 715 L 809 710 L 819 710 L 825 713 L 834 722 L 834 730 L 832 734 L 823 740 L 811 737 L 801 728 L 799 724 Z M 212 700 L 207 698 L 191 699 L 183 703 L 176 710 L 173 716 L 173 728 L 175 734 L 181 741 L 187 744 L 197 744 L 194 735 L 188 734 L 183 730 L 181 722 L 189 712 L 198 708 L 207 708 L 213 713 L 214 722 L 211 729 L 215 735 L 219 733 L 223 727 L 224 718 L 221 709 Z M 223 623 L 220 623 L 216 647 L 221 644 L 223 639 Z M 791 622 L 790 638 L 793 645 L 797 647 L 794 636 L 793 622 Z M 207 617 L 204 617 L 203 628 L 199 640 L 201 640 L 206 633 Z M 807 616 L 806 629 L 809 637 L 814 640 L 810 627 L 809 616 Z M 820 607 L 820 618 L 824 626 L 829 628 L 824 616 L 823 607 Z M 193 606 L 190 607 L 190 612 L 184 629 L 186 629 L 192 621 L 194 613 Z M 179 593 L 177 593 L 176 603 L 172 614 L 174 614 L 179 607 Z M 834 592 L 833 604 L 836 610 L 841 613 L 837 602 L 836 592 Z M 109 571 L 106 571 L 104 575 L 103 594 L 105 601 L 107 601 Z M 906 570 L 909 600 L 911 600 L 912 579 L 911 573 Z M 921 569 L 923 594 L 925 594 L 927 590 L 927 576 L 924 569 Z M 95 569 L 92 569 L 89 576 L 89 590 L 91 594 L 94 592 Z M 936 567 L 938 575 L 938 588 L 940 588 L 942 583 L 942 572 L 939 567 Z M 80 566 L 77 567 L 74 575 L 76 588 L 79 588 Z M 65 564 L 63 564 L 60 568 L 59 577 L 61 584 L 63 584 Z M 952 563 L 953 583 L 956 583 L 957 569 L 955 564 Z M 75 514 L 73 525 L 74 527 L 77 527 L 77 514 Z M 64 513 L 62 518 L 62 526 L 64 532 L 67 533 L 67 513 Z M 953 512 L 951 512 L 950 532 L 952 532 L 955 526 L 955 516 Z M 939 512 L 940 523 L 942 523 L 943 517 L 941 512 Z M 87 512 L 85 512 L 82 517 L 82 528 L 84 532 L 86 532 Z M 928 511 L 929 531 L 932 533 L 934 529 L 934 521 L 931 512 Z M 918 511 L 915 511 L 914 531 L 918 529 L 920 523 L 920 515 Z M 97 511 L 95 515 L 95 526 L 98 532 L 100 532 L 99 511 Z M 131 498 L 131 500 L 136 500 L 136 498 Z M 182 466 L 182 468 L 199 476 L 198 472 L 192 467 Z M 830 465 L 819 467 L 814 471 L 812 476 L 830 468 Z M 826 452 L 813 456 L 810 462 L 813 462 L 826 455 Z M 186 452 L 186 455 L 202 463 L 201 458 L 197 455 Z M 135 442 L 135 445 L 142 452 L 148 454 L 148 452 L 138 442 Z M 877 441 L 875 441 L 864 452 L 864 454 L 870 452 L 876 446 Z M 190 441 L 190 443 L 206 450 L 206 447 L 198 441 Z M 822 440 L 816 440 L 809 443 L 806 446 L 806 450 L 821 443 Z M 870 433 L 857 441 L 856 444 L 864 442 L 869 437 Z M 142 433 L 142 436 L 146 441 L 151 444 L 155 444 L 153 440 Z M 863 423 L 850 431 L 849 434 L 855 433 L 861 429 Z M 149 423 L 152 430 L 162 434 L 159 429 Z M 798 404 L 801 408 L 810 408 L 815 406 L 815 404 Z M 195 404 L 195 406 L 200 408 L 211 408 L 213 406 L 213 404 Z M 799 394 L 800 397 L 807 399 L 816 396 L 816 394 Z M 194 394 L 196 398 L 208 399 L 212 397 L 212 395 Z M 800 384 L 800 386 L 804 388 L 813 388 L 817 386 L 817 384 Z M 194 384 L 194 387 L 199 389 L 205 389 L 211 386 L 211 384 Z M 342 338 L 335 345 L 332 352 L 333 366 L 339 374 L 347 378 L 368 377 L 378 391 L 383 408 L 383 417 L 378 419 L 357 419 L 349 414 L 344 415 L 340 420 L 340 428 L 345 433 L 351 433 L 360 428 L 381 428 L 385 430 L 388 438 L 389 486 L 387 493 L 386 519 L 383 533 L 383 570 L 386 581 L 386 594 L 390 614 L 398 632 L 403 639 L 415 649 L 432 657 L 447 667 L 474 672 L 487 678 L 498 677 L 505 681 L 508 681 L 514 677 L 525 678 L 538 672 L 567 667 L 579 658 L 598 649 L 606 643 L 617 629 L 623 616 L 627 601 L 627 582 L 630 572 L 631 543 L 624 483 L 627 432 L 633 428 L 654 428 L 661 433 L 668 433 L 672 428 L 672 420 L 666 414 L 662 414 L 655 419 L 634 419 L 629 416 L 629 409 L 634 391 L 642 378 L 662 378 L 669 375 L 674 370 L 677 362 L 677 353 L 672 343 L 663 336 L 649 333 L 637 336 L 622 345 L 607 362 L 596 382 L 588 408 L 587 418 L 585 420 L 426 420 L 418 390 L 410 373 L 398 356 L 386 344 L 375 337 L 361 333 L 348 335 Z M 521 664 L 521 662 L 525 659 L 534 660 L 533 663 L 527 665 Z M 479 660 L 489 660 L 492 665 L 484 665 L 480 663 Z M 350 351 L 356 348 L 369 348 L 376 351 L 390 364 L 403 385 L 411 407 L 417 435 L 421 482 L 422 530 L 428 565 L 436 584 L 445 597 L 456 607 L 475 617 L 486 620 L 496 620 L 496 612 L 491 609 L 483 608 L 463 596 L 451 583 L 443 568 L 436 540 L 435 516 L 433 509 L 432 462 L 428 431 L 459 429 L 553 429 L 584 431 L 579 481 L 578 526 L 571 563 L 559 586 L 541 602 L 531 607 L 517 610 L 515 621 L 535 618 L 549 612 L 559 605 L 575 586 L 584 565 L 591 528 L 594 447 L 599 413 L 607 387 L 619 365 L 636 350 L 641 348 L 653 348 L 658 350 L 663 355 L 664 362 L 658 368 L 652 366 L 653 359 L 651 357 L 642 356 L 635 360 L 627 370 L 616 395 L 609 424 L 607 451 L 607 494 L 612 539 L 611 570 L 609 580 L 603 593 L 595 603 L 586 608 L 582 613 L 577 623 L 575 633 L 569 641 L 565 642 L 560 640 L 557 643 L 552 643 L 547 640 L 531 640 L 521 644 L 507 657 L 505 657 L 496 647 L 484 641 L 464 640 L 460 643 L 456 643 L 453 641 L 445 642 L 441 639 L 432 615 L 415 599 L 410 592 L 402 567 L 401 544 L 406 501 L 406 450 L 404 428 L 398 401 L 391 383 L 380 365 L 372 358 L 363 356 L 357 359 L 358 366 L 352 368 L 346 363 L 346 356 Z M 979 567 L 974 549 L 974 514 L 971 506 L 964 498 L 957 495 L 929 495 L 925 493 L 915 482 L 909 479 L 897 479 L 882 483 L 863 498 L 854 497 L 848 492 L 847 484 L 850 481 L 864 475 L 885 458 L 892 447 L 893 434 L 890 430 L 883 427 L 877 421 L 873 406 L 872 393 L 865 379 L 852 369 L 830 366 L 830 361 L 847 345 L 850 340 L 852 330 L 847 318 L 841 313 L 833 310 L 816 311 L 800 318 L 784 331 L 778 340 L 775 349 L 775 361 L 784 385 L 783 392 L 778 403 L 778 413 L 786 423 L 795 427 L 795 430 L 789 440 L 789 450 L 798 468 L 796 510 L 800 518 L 811 528 L 820 532 L 834 535 L 855 534 L 880 524 L 891 525 L 892 531 L 887 549 L 887 569 L 884 570 L 880 564 L 867 553 L 859 551 L 842 553 L 831 561 L 824 574 L 817 581 L 794 597 L 779 605 L 770 613 L 767 626 L 773 653 L 773 674 L 764 708 L 751 733 L 733 758 L 695 796 L 664 819 L 644 831 L 610 847 L 566 861 L 539 866 L 516 868 L 491 868 L 462 865 L 432 858 L 400 847 L 373 834 L 330 806 L 313 792 L 285 763 L 260 729 L 250 710 L 243 690 L 240 673 L 240 652 L 246 629 L 245 617 L 241 611 L 192 578 L 183 562 L 174 554 L 168 552 L 149 553 L 143 556 L 131 569 L 128 568 L 128 548 L 123 531 L 124 526 L 132 524 L 140 526 L 156 534 L 182 535 L 192 533 L 203 528 L 210 523 L 215 516 L 217 510 L 217 494 L 214 484 L 214 468 L 223 450 L 223 441 L 216 428 L 227 423 L 234 414 L 234 404 L 228 392 L 228 383 L 236 364 L 236 349 L 227 332 L 213 320 L 204 315 L 189 311 L 179 311 L 173 313 L 164 320 L 160 329 L 161 339 L 168 350 L 182 361 L 182 367 L 180 369 L 166 368 L 158 371 L 150 377 L 141 392 L 139 411 L 135 423 L 130 428 L 125 430 L 120 436 L 122 449 L 130 461 L 148 475 L 163 482 L 166 485 L 164 494 L 159 498 L 152 499 L 140 488 L 131 483 L 108 480 L 101 483 L 87 496 L 60 496 L 49 503 L 44 514 L 42 525 L 43 551 L 39 563 L 38 577 L 43 592 L 49 598 L 61 602 L 84 603 L 94 608 L 114 625 L 123 629 L 134 628 L 138 630 L 130 658 L 128 688 L 131 712 L 144 752 L 161 785 L 182 817 L 223 865 L 252 891 L 280 912 L 307 929 L 339 946 L 371 960 L 412 973 L 451 981 L 482 984 L 531 984 L 570 979 L 607 971 L 644 959 L 668 949 L 726 918 L 755 898 L 788 870 L 813 844 L 836 815 L 858 781 L 873 750 L 883 718 L 887 689 L 885 658 L 876 629 L 896 628 L 921 609 L 932 603 L 939 601 L 959 601 L 969 597 L 976 589 L 979 578 Z M 860 559 L 869 560 L 891 586 L 893 592 L 893 608 L 890 617 L 883 623 L 877 623 L 874 620 L 873 602 L 854 576 L 854 564 Z M 153 559 L 160 565 L 160 577 L 142 603 L 141 621 L 134 624 L 131 623 L 124 614 L 123 592 L 126 585 L 133 578 L 139 567 L 146 560 Z M 134 672 L 138 649 L 147 630 L 145 624 L 146 609 L 149 602 L 161 588 L 166 579 L 167 564 L 164 558 L 170 558 L 179 566 L 184 577 L 191 584 L 238 616 L 241 626 L 235 649 L 234 671 L 236 686 L 241 703 L 251 725 L 267 750 L 294 782 L 319 805 L 342 822 L 368 838 L 394 851 L 434 865 L 480 873 L 541 872 L 575 865 L 607 855 L 628 846 L 659 829 L 703 797 L 722 779 L 750 745 L 765 720 L 771 706 L 777 686 L 779 669 L 778 648 L 772 627 L 775 616 L 780 611 L 790 606 L 822 584 L 829 577 L 835 564 L 845 557 L 850 558 L 847 567 L 849 580 L 868 607 L 869 624 L 867 628 L 872 635 L 878 654 L 881 674 L 881 692 L 879 709 L 871 738 L 865 754 L 848 787 L 825 820 L 797 853 L 775 874 L 749 895 L 718 916 L 684 935 L 648 951 L 616 962 L 580 971 L 550 976 L 485 978 L 435 972 L 406 965 L 367 952 L 300 918 L 276 902 L 241 874 L 208 840 L 194 823 L 163 777 L 147 744 L 138 717 L 134 691 Z M 123 499 L 130 494 L 138 494 L 141 496 L 147 504 L 157 527 L 154 528 L 136 519 L 123 519 L 120 514 L 120 506 Z M 893 501 L 895 507 L 895 514 L 893 518 L 881 518 L 860 527 L 856 526 L 866 504 L 874 494 L 878 493 L 879 498 Z M 837 486 L 838 490 L 841 490 L 843 495 L 853 503 L 853 508 L 857 509 L 857 513 L 854 519 L 843 528 L 830 529 L 820 527 L 810 521 L 806 513 L 806 506 L 814 495 L 822 490 Z M 155 508 L 160 507 L 160 503 L 170 495 L 172 487 L 175 486 L 181 488 L 180 491 L 175 490 L 176 493 L 185 493 L 186 490 L 189 490 L 199 496 L 206 505 L 207 515 L 200 524 L 194 527 L 182 530 L 173 530 L 168 528 L 159 519 Z M 125 487 L 126 490 L 118 497 L 115 504 L 116 525 L 123 549 L 123 569 L 117 595 L 117 606 L 120 620 L 117 621 L 102 607 L 90 600 L 74 597 L 61 598 L 52 595 L 44 584 L 43 566 L 48 546 L 47 517 L 52 506 L 60 501 L 82 502 L 83 505 L 93 504 L 93 499 L 99 494 L 100 491 L 102 491 L 103 495 L 118 489 L 119 486 Z M 896 484 L 899 485 L 897 490 L 906 490 L 912 493 L 912 490 L 915 489 L 917 494 L 922 498 L 922 501 L 930 505 L 938 505 L 939 500 L 944 500 L 945 504 L 947 504 L 948 499 L 960 500 L 966 505 L 970 517 L 969 548 L 975 568 L 975 578 L 973 584 L 966 594 L 958 597 L 936 597 L 926 600 L 916 606 L 899 621 L 895 620 L 899 600 L 893 571 L 893 546 L 899 526 L 900 504 L 897 496 L 888 489 L 889 486 Z M 868 401 L 873 423 L 879 430 L 888 435 L 888 442 L 884 451 L 874 462 L 864 469 L 847 477 L 823 483 L 812 489 L 804 498 L 802 498 L 801 491 L 803 473 L 800 460 L 794 450 L 794 442 L 797 437 L 810 428 L 813 428 L 814 430 L 822 428 L 823 424 L 832 422 L 847 413 L 860 399 L 863 400 L 863 403 Z M 147 394 L 150 395 L 148 402 L 153 400 L 166 415 L 182 423 L 183 428 L 191 429 L 192 427 L 203 429 L 216 439 L 218 451 L 212 460 L 209 470 L 209 481 L 213 499 L 212 502 L 210 502 L 206 495 L 195 486 L 185 482 L 169 479 L 149 470 L 138 462 L 129 452 L 125 443 L 125 437 L 134 431 L 142 420 L 144 399 Z M 230 411 L 223 420 L 216 423 L 203 423 L 179 416 L 168 409 L 161 402 L 152 388 L 152 383 L 158 377 L 161 378 L 161 381 L 164 381 L 169 378 L 180 378 L 182 374 L 212 376 L 227 370 L 228 373 L 224 381 L 223 391 L 230 406 Z M 783 413 L 782 407 L 788 391 L 787 380 L 783 372 L 784 369 L 799 375 L 831 373 L 832 376 L 843 376 L 849 378 L 855 376 L 861 383 L 855 397 L 843 409 L 831 416 L 810 422 L 796 422 L 787 418 Z M 167 327 L 173 326 L 178 322 L 188 321 L 190 318 L 199 319 L 208 323 L 217 329 L 227 340 L 230 347 L 230 354 L 227 361 L 219 368 L 213 370 L 199 370 L 194 365 L 190 365 L 187 359 L 169 343 L 166 337 Z M 837 318 L 840 327 L 845 328 L 845 338 L 842 343 L 823 360 L 821 368 L 802 370 L 794 368 L 786 362 L 783 357 L 782 346 L 787 336 L 796 327 L 805 321 L 818 316 L 830 315 Z M 212 161 L 212 163 L 231 180 L 236 179 L 235 175 L 217 160 Z M 798 159 L 793 158 L 774 174 L 774 177 L 778 178 L 792 167 Z M 353 113 L 347 114 L 343 143 L 344 147 L 350 147 Z M 656 111 L 654 112 L 656 144 L 662 146 L 660 113 Z M 409 102 L 406 106 L 418 134 L 424 133 L 412 103 Z M 594 101 L 582 128 L 582 133 L 584 134 L 588 133 L 600 105 L 600 102 Z M 162 114 L 152 121 L 155 130 L 168 152 L 177 151 L 181 156 L 188 157 L 194 164 L 217 222 L 231 248 L 228 260 L 234 267 L 252 268 L 254 270 L 247 286 L 247 292 L 252 296 L 261 298 L 261 576 L 263 611 L 267 634 L 276 662 L 291 693 L 311 723 L 346 758 L 380 781 L 413 796 L 439 804 L 483 811 L 531 811 L 572 804 L 619 787 L 661 762 L 696 729 L 718 698 L 736 660 L 745 628 L 748 601 L 748 297 L 757 295 L 763 290 L 762 284 L 755 269 L 758 266 L 775 265 L 780 261 L 781 252 L 779 247 L 789 230 L 802 195 L 818 160 L 822 155 L 829 154 L 833 148 L 839 150 L 843 149 L 858 121 L 858 117 L 839 108 L 834 117 L 829 118 L 826 116 L 829 103 L 810 95 L 803 106 L 798 105 L 797 101 L 799 92 L 777 85 L 767 116 L 775 121 L 774 130 L 779 134 L 780 141 L 778 143 L 767 141 L 762 150 L 759 151 L 755 149 L 757 135 L 738 128 L 733 139 L 728 140 L 725 138 L 727 124 L 713 119 L 707 119 L 703 130 L 699 131 L 694 128 L 695 115 L 677 109 L 678 104 L 680 102 L 687 101 L 690 94 L 700 94 L 711 64 L 711 60 L 689 54 L 685 66 L 678 66 L 677 58 L 679 51 L 666 47 L 657 47 L 653 59 L 650 60 L 646 58 L 647 44 L 632 41 L 624 41 L 621 53 L 615 54 L 615 39 L 596 35 L 593 36 L 592 49 L 584 50 L 583 35 L 579 34 L 557 35 L 557 71 L 568 73 L 569 81 L 575 84 L 578 90 L 559 90 L 558 100 L 555 104 L 548 102 L 548 89 L 528 87 L 527 100 L 517 101 L 514 86 L 492 87 L 491 100 L 489 102 L 481 101 L 480 87 L 460 89 L 460 102 L 456 104 L 450 103 L 448 90 L 427 92 L 427 87 L 436 80 L 435 75 L 437 73 L 446 72 L 445 34 L 420 36 L 420 51 L 413 50 L 411 37 L 389 40 L 389 55 L 383 54 L 381 42 L 373 42 L 358 45 L 358 60 L 352 59 L 348 48 L 338 48 L 327 52 L 329 65 L 327 67 L 321 66 L 317 56 L 295 62 L 295 66 L 307 97 L 317 96 L 319 102 L 328 104 L 331 110 L 328 113 L 314 117 L 315 129 L 311 132 L 307 132 L 302 121 L 299 120 L 282 126 L 284 139 L 280 142 L 276 141 L 270 130 L 253 136 L 252 141 L 255 150 L 250 153 L 247 152 L 242 142 L 232 144 L 230 141 L 230 137 L 236 131 L 235 123 L 241 119 L 236 97 L 230 88 L 220 88 L 210 93 L 212 105 L 208 108 L 206 108 L 197 99 L 182 105 L 181 110 L 184 118 L 180 121 L 176 119 L 171 111 Z M 271 299 L 740 300 L 740 610 L 738 626 L 730 655 L 715 689 L 694 721 L 669 747 L 634 772 L 608 785 L 580 795 L 556 801 L 525 805 L 475 804 L 434 796 L 401 784 L 385 776 L 349 752 L 319 722 L 302 698 L 283 660 L 275 636 L 270 604 Z M 704 256 L 707 255 L 725 262 L 728 265 L 732 265 L 749 273 L 751 277 L 748 278 L 729 269 L 728 267 L 705 259 Z M 311 255 L 310 258 L 298 261 L 297 263 L 294 262 L 295 259 L 299 259 L 300 257 L 308 254 Z M 321 250 L 324 249 L 325 252 L 322 253 Z M 684 249 L 687 248 L 688 251 L 685 252 Z M 331 247 L 334 246 L 335 249 L 332 250 Z M 282 287 L 295 280 L 339 264 L 398 250 L 450 243 L 524 241 L 595 247 L 643 256 L 705 275 L 730 286 L 731 289 L 283 290 Z M 654 240 L 657 239 L 678 245 L 679 248 L 676 249 L 655 243 Z M 638 236 L 645 236 L 646 239 L 639 239 Z M 254 290 L 255 287 L 284 272 L 352 248 L 397 238 L 429 233 L 490 228 L 562 230 L 601 235 L 646 244 L 711 265 L 738 277 L 755 287 L 754 290 L 751 290 L 750 288 L 745 288 L 721 275 L 698 266 L 635 248 L 603 242 L 561 237 L 487 235 L 440 238 L 361 252 L 312 267 L 260 291 Z M 702 224 L 706 223 L 744 237 L 745 239 L 754 241 L 760 244 L 761 247 L 758 248 L 747 243 L 746 241 L 742 241 L 703 227 Z M 633 234 L 633 236 L 630 237 L 609 232 L 542 225 L 470 225 L 408 232 L 364 241 L 341 248 L 338 247 L 338 245 L 342 243 L 396 230 L 434 224 L 470 221 L 511 220 L 561 222 L 597 226 Z M 682 218 L 686 217 L 699 221 L 700 224 L 697 225 L 683 221 Z M 259 266 L 260 262 L 270 257 L 340 232 L 415 216 L 477 210 L 551 211 L 611 218 L 677 233 L 719 247 L 751 262 L 749 266 L 745 266 L 683 242 L 655 234 L 601 223 L 536 217 L 477 217 L 422 222 L 377 230 L 348 237 L 307 250 L 263 269 Z M 222 203 L 231 202 L 233 204 L 227 213 L 235 212 L 236 215 L 232 222 L 238 220 L 241 221 L 236 230 L 245 230 L 240 237 L 240 239 L 243 240 L 240 244 L 236 244 L 231 239 L 218 210 L 218 206 Z M 704 201 L 709 201 L 719 206 L 718 210 L 710 218 L 699 214 Z M 244 261 L 247 256 L 285 240 L 358 218 L 408 208 L 477 201 L 540 201 L 622 210 L 682 224 L 708 232 L 747 247 L 766 257 L 766 259 L 762 261 L 739 250 L 693 233 L 619 215 L 556 207 L 476 206 L 429 210 L 361 222 L 295 242 L 248 263 Z M 290 206 L 304 201 L 308 208 L 309 214 L 304 217 L 298 217 L 290 209 Z M 788 201 L 792 204 L 792 209 L 786 224 L 777 240 L 774 243 L 769 242 L 766 238 L 770 237 L 770 235 L 764 227 L 767 226 L 774 228 L 774 226 L 767 220 L 767 218 L 770 217 L 777 219 L 773 211 L 782 211 L 782 209 L 776 204 L 776 202 L 778 200 Z M 326 194 L 328 198 L 328 208 L 324 211 L 315 212 L 311 204 L 311 199 L 319 195 Z M 681 193 L 686 193 L 699 199 L 693 213 L 680 207 Z M 680 216 L 679 219 L 620 206 L 564 199 L 514 197 L 453 199 L 409 204 L 338 219 L 289 234 L 241 255 L 238 254 L 238 252 L 242 249 L 273 235 L 336 213 L 387 201 L 448 193 L 477 191 L 559 193 L 629 203 Z M 214 196 L 224 191 L 231 191 L 241 194 L 256 206 L 272 225 L 272 229 L 267 230 L 259 219 L 240 200 L 231 197 L 215 200 Z M 797 195 L 796 198 L 776 196 L 769 199 L 759 208 L 742 229 L 737 228 L 737 225 L 750 208 L 767 193 L 775 190 L 789 190 Z M 274 190 L 278 187 L 285 186 L 290 200 L 288 202 L 283 202 L 276 195 Z M 728 185 L 733 187 L 735 191 L 725 202 L 720 201 L 719 195 L 724 185 Z M 308 178 L 312 184 L 313 192 L 309 195 L 296 198 L 293 194 L 291 184 L 304 178 Z M 701 177 L 711 179 L 718 183 L 717 191 L 713 197 L 708 197 L 695 191 L 697 183 Z M 320 173 L 327 174 L 327 188 L 324 190 L 319 190 L 314 180 L 314 177 Z M 681 171 L 691 173 L 695 176 L 689 189 L 685 189 L 680 186 L 679 173 Z M 260 172 L 267 172 L 271 182 L 270 185 L 266 184 L 259 176 Z M 750 171 L 751 174 L 747 179 L 739 184 L 738 180 L 744 169 Z M 533 169 L 549 170 L 549 175 L 544 186 L 533 186 L 531 184 L 531 174 Z M 505 169 L 526 168 L 527 183 L 525 185 L 506 185 Z M 479 170 L 481 168 L 500 168 L 501 183 L 499 185 L 481 185 L 479 182 Z M 456 170 L 473 168 L 475 170 L 476 184 L 473 186 L 462 186 L 458 180 Z M 289 162 L 294 171 L 294 177 L 276 183 L 271 169 Z M 719 161 L 724 161 L 738 167 L 738 171 L 733 181 L 727 181 L 714 175 Z M 314 154 L 317 159 L 319 169 L 306 174 L 300 174 L 296 167 L 295 161 Z M 695 153 L 702 154 L 713 159 L 711 169 L 708 173 L 696 171 L 689 167 Z M 324 150 L 328 151 L 327 167 L 323 166 L 319 153 Z M 679 149 L 689 151 L 688 159 L 684 166 L 680 165 L 678 162 Z M 235 149 L 239 148 L 243 156 L 240 157 L 235 152 Z M 556 147 L 557 153 L 553 163 L 551 165 L 546 165 L 546 148 Z M 449 148 L 459 147 L 461 149 L 462 163 L 460 165 L 455 165 L 452 162 L 448 153 Z M 377 150 L 382 147 L 389 147 L 400 156 L 411 178 L 414 187 L 413 190 L 395 194 L 392 193 L 392 191 L 397 189 L 397 187 L 386 186 L 385 183 L 395 179 L 395 177 L 380 176 L 381 173 L 390 171 L 392 168 L 378 166 L 379 163 L 388 161 L 390 158 L 374 158 L 373 155 Z M 773 146 L 775 150 L 767 156 L 766 153 L 769 147 Z M 613 147 L 622 146 L 626 148 L 633 156 L 636 174 L 635 195 L 633 198 L 610 193 L 611 190 L 619 190 L 619 188 L 610 185 L 609 181 L 620 180 L 620 178 L 607 174 L 606 171 L 621 170 L 621 168 L 608 163 L 609 160 L 620 160 L 620 158 L 609 153 L 609 150 Z M 519 147 L 540 147 L 541 163 L 520 163 L 518 161 Z M 466 148 L 471 146 L 486 146 L 488 161 L 485 164 L 467 164 Z M 492 147 L 498 145 L 512 145 L 514 147 L 514 162 L 493 163 Z M 195 152 L 205 146 L 222 140 L 228 153 L 287 214 L 291 221 L 278 226 L 262 206 L 252 196 L 243 190 L 234 187 L 212 189 L 195 155 Z M 816 150 L 816 153 L 810 162 L 799 188 L 789 185 L 776 185 L 769 187 L 757 195 L 730 225 L 718 220 L 723 212 L 746 187 L 783 150 L 787 138 L 793 139 Z M 363 147 L 371 139 L 378 135 L 387 134 L 397 137 L 413 153 L 423 174 L 427 187 L 425 189 L 420 188 L 411 165 L 399 148 L 389 143 L 381 143 L 376 145 L 368 154 L 365 165 L 365 198 L 363 200 L 359 200 L 358 165 L 360 153 Z M 606 136 L 613 133 L 626 133 L 634 137 L 641 144 L 648 166 L 648 200 L 643 200 L 641 198 L 641 173 L 638 156 L 635 150 L 624 142 L 611 143 L 601 152 L 587 188 L 580 188 L 580 184 L 590 157 L 596 146 Z M 563 127 L 564 133 L 562 138 L 559 139 L 559 128 Z M 441 127 L 447 128 L 447 142 L 444 141 L 440 131 Z M 229 127 L 226 132 L 186 150 L 183 149 L 184 145 L 224 126 Z M 532 127 L 534 125 L 552 126 L 554 128 L 554 141 L 552 143 L 533 142 Z M 473 126 L 473 142 L 454 143 L 452 141 L 452 127 L 465 125 Z M 780 125 L 785 124 L 824 141 L 828 144 L 828 147 L 825 148 L 781 128 Z M 505 126 L 507 124 L 526 125 L 528 128 L 527 140 L 525 142 L 506 141 Z M 479 126 L 499 124 L 501 126 L 501 140 L 496 142 L 480 142 Z M 327 120 L 326 145 L 324 147 L 301 153 L 255 170 L 244 162 L 245 159 L 249 159 L 260 154 L 258 144 L 259 139 L 268 136 L 273 147 L 278 148 L 290 143 L 288 134 L 289 128 L 298 126 L 304 138 L 308 138 L 321 133 L 319 125 L 320 119 Z M 677 117 L 683 116 L 689 118 L 690 122 L 688 133 L 700 137 L 705 137 L 711 125 L 720 127 L 721 131 L 718 142 L 731 147 L 735 147 L 741 135 L 750 137 L 751 142 L 748 152 L 763 158 L 764 161 L 757 168 L 752 168 L 724 157 L 679 143 Z M 230 95 L 235 111 L 234 117 L 201 131 L 174 145 L 170 145 L 158 125 L 160 120 L 169 117 L 175 127 L 182 126 L 190 121 L 187 108 L 191 105 L 196 104 L 200 110 L 206 114 L 218 109 L 215 99 L 216 95 L 227 92 Z M 780 92 L 786 91 L 793 95 L 791 107 L 803 112 L 807 111 L 812 101 L 821 104 L 823 109 L 820 119 L 829 124 L 835 125 L 841 114 L 850 117 L 852 122 L 842 141 L 838 143 L 799 124 L 774 114 L 773 111 Z M 430 103 L 431 96 L 443 95 L 447 109 L 463 108 L 464 94 L 475 93 L 477 95 L 478 107 L 495 106 L 496 92 L 508 91 L 511 93 L 512 106 L 530 106 L 531 93 L 539 92 L 543 94 L 544 108 L 560 109 L 564 95 L 576 96 L 574 106 L 566 123 L 529 120 L 481 120 L 439 123 Z M 418 86 L 420 97 L 425 107 L 453 186 L 435 188 L 419 154 L 413 145 L 404 136 L 395 131 L 381 130 L 367 136 L 356 150 L 353 161 L 352 202 L 336 206 L 335 143 L 337 109 L 340 106 L 340 104 L 337 104 L 336 101 L 368 93 Z M 586 84 L 626 89 L 656 95 L 671 100 L 670 103 L 666 103 L 666 106 L 669 107 L 671 126 L 673 187 L 672 206 L 662 205 L 654 201 L 654 170 L 649 149 L 638 134 L 625 128 L 610 129 L 593 142 L 585 156 L 575 184 L 572 188 L 555 187 L 553 185 L 569 136 L 586 92 Z M 429 76 L 428 79 L 367 88 L 329 97 L 325 96 L 326 92 L 361 84 L 424 74 Z M 575 74 L 582 73 L 643 82 L 681 91 L 682 94 L 675 95 L 636 86 L 576 78 Z M 562 40 L 577 40 L 577 54 L 596 56 L 597 42 L 603 41 L 609 43 L 608 57 L 612 59 L 625 60 L 628 47 L 633 46 L 641 49 L 640 63 L 657 66 L 660 53 L 668 52 L 673 55 L 671 69 L 687 73 L 692 60 L 703 62 L 704 67 L 695 89 L 619 73 L 569 68 L 562 65 Z M 440 40 L 440 66 L 438 68 L 378 76 L 322 89 L 310 90 L 301 67 L 304 63 L 314 61 L 319 74 L 335 70 L 333 55 L 338 53 L 345 54 L 348 66 L 365 63 L 364 49 L 369 47 L 376 48 L 379 61 L 391 60 L 396 58 L 395 44 L 403 42 L 407 44 L 409 57 L 426 55 L 425 41 L 431 39 Z" fill="#0D419C" fill-rule="evenodd"/>
</svg>
